<?xml version="1.0" standalone="no"?>
<!DOCTYPE svg PUBLIC "-//W3C//DTD SVG 20010904//EN"
 "http://www.w3.org/TR/2001/REC-SVG-20010904/DTD/svg10.dtd">
<svg version="1.0" xmlns="http://www.w3.org/2000/svg"
 width="1024.000000pt" height="1024.000000pt" viewBox="0 0 1024.000000 1024.000000"
 preserveAspectRatio="xMidYMid meet">

<g transform="translate(0.000000,1024.000000) scale(0.100000,-0.100000)"
fill="#000000" stroke="none">
<path d="M2447 9004 c-298 -46 -569 -185 -787 -404 -223 -223 -361 -497 -405
-805 -12 -85 -15 -493 -15 -2665 0 -1723 3 -2593 10 -2650 69 -559 467 -1029
1005 -1185 201 -58 50 -56 2912 -52 l2628 3 86 21 c281 70 489 180 675 356
211 200 348 446 416 748 l23 104 0 2650 c0 2521 -1 2654 -18 2735 -63 295
-193 537 -401 746 -200 199 -415 317 -709 387 l-92 21 -2620 2 c-2187 2 -2635
0 -2708 -12z m5341 -329 c447 -85 800 -440 877 -884 23 -128 22 -5220 0 -5338
-41 -214 -136 -400 -284 -556 -162 -170 -343 -271 -572 -317 -95 -20 -142 -20
-2684 -20 -2576 0 -2587 0 -2688 21 -411 83 -728 381 -850 799 l-22 75 -3
2620 c-2 1806 1 2642 8 2690 45 300 229 584 486 751 119 78 226 122 374 154
81 18 197 19 2681 19 2281 1 2607 -1 2677 -14z"/>
<path d="M2735 7661 c-57 -14 -104 -43 -149 -91 -78 -83 -77 -79 -74 -691 l3
-534 24 -52 c27 -61 93 -126 159 -156 46 -22 55 -22 592 -22 513 0 548 1 595
19 65 25 137 94 166 159 24 52 24 55 27 477 l3 425 128 130 c100 101 131 139
140 170 15 55 -1 106 -46 145 -34 30 -40 32 -100 28 -63 -4 -63 -4 -133 -73
l-70 -69 -17 24 c-29 41 -65 72 -113 94 -44 20 -58 21 -575 23 -291 1 -543 -2
-560 -6z m837 -546 l-237 -241 -95 98 c-100 102 -122 114 -190 105 -113 -15
-165 -138 -101 -238 16 -24 89 -103 162 -175 144 -141 179 -162 247 -149 58
11 87 34 252 209 85 90 158 164 163 165 4 1 7 -105 7 -234 l0 -235 -480 0
-480 0 0 468 0 467 495 0 495 0 -238 -240z"/>
<path d="M4810 7142 c-90 -40 -129 -156 -77 -233 12 -18 38 -44 56 -56 l34
-23 1407 0 1407 0 33 23 c47 31 74 81 74 137 0 56 -27 106 -74 137 l-33 23
-1406 -1 c-773 0 -1413 -3 -1421 -7z"/>
<path d="M2737 5809 c-60 -14 -110 -44 -151 -89 -74 -83 -71 -51 -71 -675 l0
-560 24 -48 c13 -26 45 -67 72 -91 86 -77 73 -76 680 -76 513 0 541 1 592 20
67 25 132 87 166 159 l26 56 3 419 3 419 130 133 c151 153 165 180 130 259
-24 55 -70 85 -129 85 -56 0 -75 -10 -148 -82 l-62 -60 -43 47 c-85 93 -60 90
-659 92 -289 1 -542 -3 -563 -8z m823 -544 l-235 -235 -90 94 c-82 86 -94 95
-136 101 -129 19 -220 -108 -160 -223 25 -47 287 -308 324 -322 41 -15 103
-12 140 6 18 9 110 93 205 187 l172 172 0 -238 0 -237 -480 0 -480 0 0 465 0
465 487 0 488 0 -235 -235z"/>
<path d="M4800 5278 c-57 -30 -82 -65 -87 -125 -7 -63 14 -112 63 -149 l37
-29 1391 -3 c924 -2 1403 1 1426 7 47 14 99 69 110 117 18 79 -35 173 -108
194 -24 6 -509 10 -1412 10 l-1376 0 -44 -22z"/>
<path d="M4171 3970 c-22 -5 -57 -31 -102 -76 -38 -37 -70 -66 -72 -63 -45 63
-65 81 -114 106 l-58 28 -545 0 c-533 0 -546 0 -591 -21 -63 -30 -116 -79
-147 -138 l-27 -51 0 -545 c0 -511 1 -548 19 -594 22 -59 74 -118 130 -151 75
-43 128 -46 666 -43 458 3 509 5 552 21 66 26 132 88 165 155 l28 57 5 417 5
417 125 132 c132 138 155 177 144 237 -8 43 -55 98 -92 106 -15 4 -34 8 -42
10 -8 2 -30 0 -49 -4z m-431 -377 c-28 -32 -131 -138 -228 -236 l-178 -179
-85 93 c-111 122 -158 141 -244 99 -74 -36 -103 -118 -70 -197 21 -50 278
-310 330 -334 96 -45 133 -25 343 184 l172 172 0 -233 0 -232 -480 0 -480 0 0
460 0 460 486 0 485 0 -51 -57z"/>
<path d="M4790 3431 c-75 -39 -104 -153 -57 -222 12 -18 38 -44 56 -56 l34
-23 1407 0 1407 0 34 23 c37 24 79 97 79 137 0 40 -42 113 -79 137 l-34 23
-1406 0 c-1350 0 -1408 -1 -1441 -19z"/>
</g>
</svg>
